<svg xmlns="http://www.w3.org/2000/svg" viewBox="0 0 196.23 256.88"><defs><style>.cls-1{fill:#3c3c3b;}.cls-2{fill:none;}</style></defs><g id="Layer_2" data-name="Layer 2"><g id="Layer_1-2" data-name="Layer 1"><path class="cls-1" d="M84.14,45.09C73,44.6,70.9,32.27,73.27,23.51l-.68,2.09c-5.11,15-2.74,6.86.66,3.74a10.76,10.76,0,0,1,5.14-2.73c4.78-.92,9,2.16,11.12,6.25a15.64,15.64,0,0,1,1.66,6.61c.06,1.33-.27,9.35-1.53,9.78-.45.15,3.89-9.24,1.32-4.09-.83,1.69-1.48,3.49-2.25,5.2-1.28,2.85-2.63,5.66-4,8.47A283.65,283.65,0,0,0,72.87,85.59c-3.38,9.31-7.27,18.9-8.37,28.82-1.07,9.62,2.53,19.07,13.32,20,9.62.81,18.38-5.16,24.64-11.9,7-7.51,12.14-16.68,17.23-25.51a302,302,0,0,0,15.36-30.16c4.24-9.75,7.76-19.81,11.15-29.89,3.12-9.3,6.48-19.34,7.38-29.15C153.92,4,151.8-2.43,147,1c-3.41,2.37-5.23,7.38-6.66,11.11-3.48,9.05-6.56,18.11-8,27.72-3.5,23.8-7.49,47.38-13.33,70.74-6.33,25.33-13.69,51-25.09,74.57C83.29,207,67.11,225.37,45,236.22c-11,5.41-22.84,8-32.19-1.93a30.33,30.33,0,0,1-7.39-15.35,41.3,41.3,0,0,1-.7-7.85c0-5.36,3.76-15.33-2.44,1.41l-.37.95c4.63-10.56,15.21-14.53,26.17-12.08C40.06,204,50.24,212.85,60,219.7c20.17,14.1,41.08,28.15,65.26,34.18,20.7,5.17,50.61,6,60.51-17.1a123.74,123.74,0,0,0,8.24-25.58c1.84-9.89,4.5-24-1.68-32.78-3.33-4.76-9.21-7.52-14.79-5-4.55,2.08-6.73,6.28-8.41,10.7-2.08,5.52-4.59,11.39-5.53,17.25-.58,3.6-2.21,16,4.91,13.59.89-.3,2.23-6.09,2.56-7s1.53-6.8,2.42-7.1c-8.21,2.78-5-13.73-4.15-17.06l-.67,2.09-1.17,3.74q-2.46,6.08-.36,2.55c.51-.51.91-1.12,1.41-1.64a13.75,13.75,0,0,1,4-2.91,10.78,10.78,0,0,1,10.09.59c7,4.1,8.46,12.57,8.21,20.05-.12,3.71-.49,7.44-.94,11.13-.24,2-.53,4-.89,6-.14.75-.29,1.48-.45,2.22-.82,3.77-2.33,2.64,1.57-3.61-4,6.49-7.66,11.58-15,14.75-15.17,6.55-33.93,4.33-49.32-.17-17.12-5-32.71-13.95-47.48-23.78-7.27-4.84-14.39-9.91-21.55-14.91-6.93-4.82-14.05-10-22.31-12.26-7-1.9-15.14-1.55-21.13,2.95-5.57,4.18-7.4,10.94-9.6,17.21-4.72,13.43-6.79,29.31,4,40.7,12.66,13.31,30.16,4.14,42.88-4.18,28.56-18.66,41.18-49.2,52.24-80.09C114.91,130.83,124.89,97,131.49,62.13q2.65-14,4.64-28.05c.55-3.86,1-7.73,1.65-11.57.27-1.56.63-3.1.91-4.66.92-5.23-1.1,4.19-1.48,3.88-.17-.14,1.81-3.11,1.95-3.31,1.69-2.49,4.16-5.64,7.35-3.46s2.13,7,1.55,10.22c-.73,4-1.63,8-2.66,12-.64,2.46-1.52,4.89-2.09,7.35-.64,2.74.81-2,.85-2.12-.72,1.63-1.29,3.38-2,5A303.13,303.13,0,0,1,118,93.9c-7.38,11.83-18.24,26.58-33.82,26.39-7.19-.08-13-4.24-14.52-11.41a29,29,0,0,1,0-10q.42-2.85,1.1-5.66c.25-1,.55-2.07.82-3.12,1.53-5.93-3.56,8.16-1,2.68,6.7-14.33,13.9-28.56,19.22-43.47,2.51-7,6-14.69,6.34-22.26.25-6.62-3.69-15.09-11.46-14.69-6.47.33-9.76,6.58-11.74,11.93-2.38,6.43-5.72,13.59-5.71,20.59,0,7.17,4.26,14.07,11.94,14.41,1.55.07,3.64-14.21,5-14.15Z"/><path class="cls-1" d="M90.06,185.16l.48-.94v-1.08c0-.19,0-.45-.06-.71,0-.46-.12-.93-.14-1a20.75,20.75,0,0,0-1.51-4.31c-.48-1.3-3.9-5.24-6.77-4.78a2.19,2.19,0,0,0-1.82,3A3.69,3.69,0,0,0,84,177.5a1.76,1.76,0,0,0,1.48-1,5.29,5.29,0,0,1,1.78,2.21c.72,1.56,1.12,4.07-.27,7.78a5.37,5.37,0,0,0,.06-1.9,2.76,2.76,0,0,0-2.19-2.41c-2.87-.67-3.77,1.52-2.72,4.55a9.34,9.34,0,0,1,.3,4.43L85.84,193C87.29,190.44,88.68,187.81,90.06,185.16Z"/><path class="cls-1" d="M82.4,191.15c-.4,3.12-1.85,7.13-4.22,12.64l0,.11,1.08.64c2.26-3.8,4.5-7.61,6.62-11.5Z"/><path class="cls-1" d="M101.59,158.38v-.11l.32-1.75c1.53-5.79,2.33-10,2.26-13.13l3.69,1.35c-1.89,5.19-3.93,10.33-6.08,15.42l-.1-1.08A5.58,5.58,0,0,0,101.59,158.38Z"/><path class="cls-1" d="M93.56,163.29c-1.27-2.94-.55-5.19,2.37-4.74a2.74,2.74,0,0,1,2.36,2.23,5.2,5.2,0,0,1,.1,1.9c1.09-3.8.51-6.27-.33-7.78a5.31,5.31,0,0,0-2-2.07A1.73,1.73,0,0,1,94.72,154a3.66,3.66,0,0,1-3.88-1.88,2.19,2.19,0,0,1,1.58-3.16c2.83-.67,6.53,3,7.12,4.26a21.08,21.08,0,0,1,1.83,4.18c0,.11.13.57.22,1a5.58,5.58,0,0,1,.1.7l.1,1.08-.41,1c-1.17,2.74-2.36,5.48-3.61,8.18l-3.57-1.63A9.37,9.37,0,0,0,93.56,163.29Z"/><path class="cls-1" d="M90.47,182.43l0-.1.46-1.72c2-5.67,3.08-9.79,3.25-12.93l3.57,1.63q-3.42,7.55-7.23,14.91v-1.08C90.52,183,90.5,182.69,90.47,182.43Z"/><path class="cls-1" d="M82.1,186.72c-1-3-.15-5.22,2.72-4.55A2.76,2.76,0,0,1,87,184.58a5.37,5.37,0,0,1-.06,1.9c1.39-3.71,1-6.22.27-7.78a5.29,5.29,0,0,0-1.78-2.21,1.76,1.76,0,0,1-1.48,1,3.69,3.69,0,0,1-3.73-2.17,2.19,2.19,0,0,1,1.82-3c2.87-.46,6.29,3.48,6.77,4.78a20.75,20.75,0,0,1,1.51,4.31c0,.11.09.58.14,1,0,.26,0,.52.06.71v1.08l-.48.94c-1.38,2.65-2.77,5.28-4.22,7.88l-3.44-1.89A9.34,9.34,0,0,0,82.1,186.72Z"/><path class="cls-1" d="M113,138.74l.2-.94.67-.73c.12-.13.3-.3.48-.46s.67-.58.76-.65a21.17,21.17,0,0,1,3.8-2.15c1.17-.63,6.27-1.49,8.26.53a2,2,0,0,1-.41,3.3,3.89,3.89,0,0,1-4.26-.66c-.84-.89-.55-1.6-.55-1.6s-4.87-.65-7.36,6.12c0,0,1.62-3,4.35-1.72s2,3.36-.75,4.82a9,9,0,0,0-3,2.87l-3.85-.82Z"/><path class="cls-1" d="M115.13,147.47c-1.68,2.37-3.19,6-5.08,11.09l0,.09-1.23-.27,2.51-11.73Z"/><rect class="cls-2" x="98.53" y="126.89" width="24.03" height="31.16" transform="translate(-51.91 220.74) rotate(-77.92)"/><path class="cls-1" d="M128.73,114.17l-.87.21-.83.22-.79.24-.76.26-.71.26-.68.28-.64.29-.61.29-.57.3-.54.3-.5.31-.48.31-.44.31-.41.31-.38.3-.35.3-.33.29-.3.29-.27.27-.25.27-.22.25-.2.24-.33.43-.24.35-.17.27-.12.23v-.23l0-.12,0-.12,0-.11-.07-.12-.07-.11-.09-.11-.09-.11-.1-.11-.11-.1-.11-.1-.23-.2-.24-.18-.25-.17-.24-.15-.42-.25-.42-.21-.32.27-.31.27-.28.26-.27.26-.24.26-.23.25-.1.13,0,0-.11.07-.22.13-.21.13-.2.13-.38.28-.17.14-.17.14-.32.28-.28.28-.26.28-.23.28-.21.28-.18.27-.17.26-.14.27-.13.25-.11.25-.09.24-.08.23-.07.22,0,.22,0,.2,0,.2,0,.19v.52l0,.16,0,.15,0,.13,0,.14,0,.12,0,.11,0,.11.06.1.06.09.07.09.07.08.07.07.07.07.08.06.08.05.09,0,.08.05.09,0,.09,0,.18.06.19.05.19,0,.2,0h2.36l.35,0,.33,0,.29.05.26.05.22,0,.18.06.26.08.06,0h0c-.07,0,0,0,0,0h0l.19.31.23.34.32.42.2.23.21.23.23.24.25.24.26.24.29.22.3.21.16.1.16.09.17.09.17.09.17.07.18.07.18.06.18.06.19,0,.19,0,.2,0,.2,0h.41l.21,0,.21,0,.22,0,.22-.06.22-.07.22-.09.23-.1.23-.11.24-.14.23-.15.24-.16.24-.19.25-.2.24-.22.25-.23.25-.26.25-.27.25-.3.25-.32.26-.33-.24-.41-.26-.41-.16-.24-.18-.23-.19-.24-.21-.23L123,127l-.11-.09-.12-.09-.11-.08-.12-.07-.11-.06-.12,0-.12,0-.12,0h-.23l.22-.13.26-.18.35-.26.41-.34.23-.21.25-.23.25-.26.26-.28.28-.31.27-.34.29-.37.29-.39.29-.42.28-.46.29-.48.29-.52.28-.55.28-.58.26-.62.26-.65.25-.69.24-.72.22-.76.21-.8.19-.84Z"/></g></g></svg>